<svg xmlns="http://www.w3.org/2000/svg" xmlns:xlink="http://www.w3.org/1999/xlink"
	x="0" y="0" width="100" height="100"
	viewBox="0 0 100 100">
	<title>uturn</title>
	<g>
		<path fill="#000000" stroke="#000000" fill-opacity="1"
		stroke-width="2" stroke-linejoin="round" stroke-dashoffset="" fill-rule="nonzero" marker-start="" marker-mid="" marker-end="" d="M0.9999999235962491,99.4210482994811 L0.9999999235962491,44.05921111634983 L0.9999999235962491,44.05921111634983 C0.9999999235962491,20.278268370549497 20.278264976697415,1.0000000147295927 44.059214327937184,1.0000000147295927 L44.059214327937184,1.0000000147295927 L44.059214327937184,1.0000000147295927 C55.47922477009348,1.0000000147295927 66.4315039797263,5.536583432842633 74.50668125239014,13.611750797342722 C82.58185191960143,21.686918161846123 87.11842542954952,32.63919737147893 87.11842542954952,44.05921111634983 L87.11842542954952,50.21052745982787 L99.42104820835726,50.21052745982787 L74.81579934804421,74.81579943917367 L50.21052736869325,50.21052745982787 L62.51316005564445,50.21052745982787 L62.51316005564445,44.05921111634983 C62.51316005564445,33.86737992645786 54.25104221511094,25.605268691358788 44.05921763065942,25.605268691358788 L44.05921763065942,25.605268691358788 L44.05921763065942,25.605268691358788 C33.86737983532049,25.605268691358788 25.605268600232193,33.86737992645786 25.605268600232193,44.05921111634983 L25.605268600232193,99.4210482994811 L0.9999999235962491,99.4210482994811 z" />
	</g>
</svg>